G04*
G04 #@! TF.GenerationSoftware,Altium Limited,Altium Designer,19.1.7 (138)*
G04*
G04 Layer_Color=32896*
%FSLAX44Y44*%
%MOMM*%
G71*
G01*
G75*
G36*
X130968Y391445D02*
X131032Y391429D01*
X131080Y391397D01*
X131096Y391381D01*
X131112D01*
X131175Y391301D01*
X131223Y391222D01*
X131287Y391078D01*
Y391014D01*
X131303Y390966D01*
Y390919D01*
X131287Y390775D01*
X131239Y390631D01*
X131175Y390536D01*
X131159Y390504D01*
Y390488D01*
X131048Y390328D01*
X130936Y390201D01*
X130840Y390121D01*
X130824Y390105D01*
X130808Y390089D01*
X120057Y382815D01*
X130808Y382831D01*
X130920Y382815D01*
X131016Y382799D01*
X131096Y382784D01*
X131144Y382752D01*
X131223Y382704D01*
X131239Y382688D01*
X131303Y382528D01*
Y382337D01*
X131287Y382225D01*
X131271Y382113D01*
X131191Y381922D01*
X131144Y381858D01*
X131096Y381795D01*
X131080Y381763D01*
X131064Y381747D01*
X130984Y381651D01*
X130904Y381571D01*
X130824Y381507D01*
X130745Y381460D01*
X130697Y381428D01*
X130649Y381396D01*
X130617Y381380D01*
X130601D01*
X130346Y381332D01*
X117569Y381284D01*
X117362Y381316D01*
X117202Y381364D01*
X117106Y381444D01*
X117027Y381523D01*
X116979Y381603D01*
X116963Y381683D01*
X116947Y381731D01*
Y381747D01*
X117011Y381954D01*
X117059Y382113D01*
X117091Y382193D01*
X117106Y382225D01*
X117266Y382385D01*
X117409Y382528D01*
X117473Y382576D01*
X117521Y382608D01*
X117553Y382640D01*
X117569D01*
X130346Y391286D01*
X130601Y391413D01*
X130713Y391445D01*
X130808Y391461D01*
X130968Y391445D01*
D02*
G37*
G36*
X129421Y369193D02*
X129756Y369129D01*
X129899Y369097D01*
X130011Y369049D01*
X130123Y369002D01*
X130218Y368970D01*
X130282Y368922D01*
X130330Y368906D01*
X130362Y368874D01*
X130378D01*
X130537Y368746D01*
X130681Y368619D01*
X130808Y368459D01*
X130920Y368316D01*
X131000Y368156D01*
X131080Y367997D01*
X131191Y367678D01*
X131255Y367407D01*
X131271Y367279D01*
X131287Y367167D01*
X131303Y367088D01*
Y366099D01*
X131287Y365859D01*
X131255Y365620D01*
X131207Y365381D01*
X131159Y365141D01*
X131000Y364711D01*
X130824Y364328D01*
X130729Y364168D01*
X130649Y364009D01*
X130569Y363881D01*
X130490Y363770D01*
X130442Y363674D01*
X130394Y363610D01*
X130362Y363562D01*
X130346Y363546D01*
X130170Y363323D01*
X129979Y363116D01*
X129788Y362924D01*
X129612Y362765D01*
X129421Y362605D01*
X129229Y362478D01*
X128894Y362238D01*
X128591Y362079D01*
X128464Y362015D01*
X128352Y361951D01*
X128272Y361919D01*
X128209Y361887D01*
X128161Y361871D01*
X128145D01*
X120105Y359144D01*
X119866Y359064D01*
X119627Y359016D01*
X119403Y358984D01*
X119196Y358968D01*
X118813Y358984D01*
X118478Y359048D01*
X118335Y359096D01*
X118207Y359128D01*
X118111Y359176D01*
X118016Y359208D01*
X117952Y359255D01*
X117904Y359271D01*
X117872Y359303D01*
X117856D01*
X117697Y359431D01*
X117553Y359575D01*
X117441Y359718D01*
X117330Y359878D01*
X117250Y360037D01*
X117170Y360197D01*
X117059Y360516D01*
X116995Y360787D01*
X116979Y360914D01*
X116963Y361026D01*
X116947Y361106D01*
Y362095D01*
X116963Y362334D01*
X116995Y362573D01*
X117027Y362813D01*
X117091Y363036D01*
X117234Y363467D01*
X117409Y363849D01*
X117489Y364025D01*
X117585Y364168D01*
X117665Y364312D01*
X117729Y364424D01*
X117792Y364503D01*
X117840Y364583D01*
X117856Y364615D01*
X117872Y364631D01*
X118048Y364854D01*
X118239Y365062D01*
X118430Y365253D01*
X118622Y365429D01*
X118813Y365572D01*
X118989Y365716D01*
X119340Y365939D01*
X119643Y366115D01*
X119770Y366178D01*
X119882Y366226D01*
X119978Y366274D01*
X120042Y366306D01*
X120089Y366322D01*
X120105D01*
X128145Y369049D01*
X128384Y369129D01*
X128623Y369177D01*
X128831Y369193D01*
X129054Y369209D01*
X129421Y369193D01*
D02*
G37*
G36*
X129054Y358857D02*
X129245Y358825D01*
X129437Y358777D01*
X129612Y358729D01*
X129756Y358681D01*
X129883Y358617D01*
X129995Y358570D01*
X130075Y358522D01*
X130139Y358490D01*
X130170Y358474D01*
X130186Y358458D01*
X130378Y358298D01*
X130553Y358123D01*
X130697Y357948D01*
X130840Y357740D01*
X130936Y357533D01*
X131032Y357325D01*
X131112Y357134D01*
X131159Y356927D01*
X131207Y356735D01*
X131239Y356560D01*
X131271Y356400D01*
X131287Y356257D01*
X131303Y356145D01*
Y355985D01*
X131287Y355682D01*
X131255Y355539D01*
X131239Y355411D01*
X131207Y355300D01*
X131175Y355204D01*
X131159Y355140D01*
Y355124D01*
X131048Y354773D01*
X130984Y354614D01*
X130936Y354470D01*
X130872Y354342D01*
X130840Y354247D01*
X130808Y354183D01*
X130793Y354167D01*
X130601Y353800D01*
X130394Y353465D01*
X130170Y353178D01*
X129979Y352907D01*
X129804Y352700D01*
X129660Y352540D01*
X129612Y352492D01*
X129564Y352444D01*
X129548Y352428D01*
X129532Y352412D01*
X129437Y352333D01*
X129357Y352269D01*
X129229Y352189D01*
X129150Y352157D01*
X129118Y352141D01*
X129022Y352109D01*
X128926D01*
X128767Y352141D01*
X128703Y352157D01*
X128655Y352189D01*
X128639Y352205D01*
X128623D01*
X128559Y352269D01*
X128512Y352349D01*
X128464Y352492D01*
X128448Y352556D01*
X128432Y352604D01*
Y352652D01*
X128496Y352987D01*
X128591Y353146D01*
X128671Y353258D01*
X128735Y353338D01*
X128751Y353354D01*
X128926Y353545D01*
X129102Y353736D01*
X129245Y353912D01*
X129357Y354087D01*
X129453Y354231D01*
X129516Y354358D01*
X129564Y354422D01*
X129580Y354454D01*
X129676Y354678D01*
X129740Y354885D01*
X129804Y355092D01*
X129836Y355252D01*
X129852Y355395D01*
X129867Y355507D01*
Y355794D01*
X129836Y355954D01*
X129804Y356113D01*
X129772Y356241D01*
X129740Y356352D01*
X129708Y356432D01*
X129692Y356480D01*
X129676Y356496D01*
X129596Y356640D01*
X129516Y356767D01*
X129437Y356863D01*
X129357Y356959D01*
X129277Y357022D01*
X129213Y357070D01*
X129181Y357102D01*
X129166Y357118D01*
X129038Y357198D01*
X128910Y357262D01*
X128639Y357357D01*
X128368Y357389D01*
X128113D01*
X127905Y357373D01*
X127730Y357341D01*
X127666Y357325D01*
X127618Y357309D01*
X127586Y357294D01*
X127570D01*
X127379Y357214D01*
X127188Y357118D01*
X127012Y357022D01*
X126853Y356911D01*
X126709Y356815D01*
X126597Y356735D01*
X126534Y356671D01*
X126502Y356655D01*
X118048Y348504D01*
X117936Y348409D01*
X117840Y348329D01*
X117665Y348233D01*
X117601Y348201D01*
X117569Y348169D01*
X117537Y348153D01*
X117521D01*
X117425Y348121D01*
X117330D01*
X117250Y348138D01*
X117186Y348169D01*
X117091Y348249D01*
X117027Y348377D01*
X116979Y348488D01*
X116963Y348616D01*
X116947Y348696D01*
Y354470D01*
X116963Y354598D01*
X116979Y354725D01*
X117011Y354821D01*
X117059Y354917D01*
X117106Y354996D01*
X117138Y355044D01*
X117154Y355076D01*
X117170Y355092D01*
X117346Y355252D01*
X117505Y355363D01*
X117569Y355395D01*
X117617Y355427D01*
X117649Y355443D01*
X117665D01*
X117760Y355459D01*
X117856Y355475D01*
X118016Y355443D01*
X118080Y355427D01*
X118127Y355411D01*
X118143Y355395D01*
X118159D01*
X118239Y355347D01*
X118287Y355268D01*
X118351Y355140D01*
X118367Y355060D01*
X118383Y355012D01*
Y350514D01*
X125768Y357660D01*
X126103Y357916D01*
X126422Y358139D01*
X126709Y358330D01*
X126980Y358474D01*
X127204Y358586D01*
X127379Y358649D01*
X127459Y358681D01*
X127507Y358697D01*
X127523Y358713D01*
X127538D01*
X127826Y358793D01*
X128097Y358857D01*
X128352Y358889D01*
X128591D01*
X128831D01*
X129054Y358857D01*
D02*
G37*
G36*
Y348807D02*
X129245Y348775D01*
X129437Y348728D01*
X129612Y348680D01*
X129756Y348632D01*
X129883Y348568D01*
X129995Y348520D01*
X130075Y348473D01*
X130139Y348441D01*
X130170Y348425D01*
X130186Y348409D01*
X130378Y348249D01*
X130553Y348074D01*
X130697Y347898D01*
X130840Y347691D01*
X130936Y347483D01*
X131032Y347276D01*
X131112Y347085D01*
X131159Y346877D01*
X131207Y346686D01*
X131239Y346511D01*
X131271Y346351D01*
X131287Y346207D01*
X131303Y346096D01*
Y345936D01*
X131287Y345633D01*
X131255Y345490D01*
X131239Y345362D01*
X131207Y345250D01*
X131175Y345155D01*
X131159Y345091D01*
Y345075D01*
X131048Y344724D01*
X130984Y344564D01*
X130936Y344421D01*
X130872Y344293D01*
X130840Y344198D01*
X130808Y344134D01*
X130793Y344118D01*
X130601Y343751D01*
X130394Y343416D01*
X130170Y343129D01*
X129979Y342858D01*
X129804Y342650D01*
X129660Y342491D01*
X129612Y342443D01*
X129564Y342395D01*
X129548Y342379D01*
X129532Y342363D01*
X129437Y342283D01*
X129357Y342220D01*
X129229Y342140D01*
X129150Y342108D01*
X129118Y342092D01*
X129022Y342060D01*
X128926D01*
X128767Y342092D01*
X128703Y342108D01*
X128655Y342140D01*
X128639Y342156D01*
X128623D01*
X128559Y342220D01*
X128512Y342299D01*
X128464Y342443D01*
X128448Y342507D01*
X128432Y342555D01*
Y342602D01*
X128496Y342937D01*
X128591Y343097D01*
X128671Y343209D01*
X128735Y343288D01*
X128751Y343304D01*
X128926Y343496D01*
X129102Y343687D01*
X129245Y343863D01*
X129357Y344038D01*
X129453Y344182D01*
X129516Y344309D01*
X129564Y344373D01*
X129580Y344405D01*
X129676Y344628D01*
X129740Y344836D01*
X129804Y345043D01*
X129836Y345202D01*
X129852Y345346D01*
X129867Y345458D01*
Y345745D01*
X129836Y345904D01*
X129804Y346064D01*
X129772Y346191D01*
X129740Y346303D01*
X129708Y346383D01*
X129692Y346431D01*
X129676Y346447D01*
X129596Y346590D01*
X129516Y346718D01*
X129437Y346814D01*
X129357Y346909D01*
X129277Y346973D01*
X129213Y347021D01*
X129181Y347053D01*
X129166Y347069D01*
X129038Y347149D01*
X128910Y347212D01*
X128639Y347308D01*
X128368Y347340D01*
X128113D01*
X127905Y347324D01*
X127730Y347292D01*
X127666Y347276D01*
X127618Y347260D01*
X127586Y347244D01*
X127570D01*
X127379Y347164D01*
X127188Y347069D01*
X127012Y346973D01*
X126853Y346861D01*
X126709Y346766D01*
X126597Y346686D01*
X126534Y346622D01*
X126502Y346606D01*
X118048Y338455D01*
X117936Y338359D01*
X117840Y338280D01*
X117665Y338184D01*
X117601Y338152D01*
X117569Y338120D01*
X117537Y338104D01*
X117521D01*
X117425Y338072D01*
X117330D01*
X117250Y338088D01*
X117186Y338120D01*
X117091Y338200D01*
X117027Y338327D01*
X116979Y338439D01*
X116963Y338567D01*
X116947Y338647D01*
Y344421D01*
X116963Y344548D01*
X116979Y344676D01*
X117011Y344772D01*
X117059Y344868D01*
X117106Y344947D01*
X117138Y344995D01*
X117154Y345027D01*
X117170Y345043D01*
X117346Y345202D01*
X117505Y345314D01*
X117569Y345346D01*
X117617Y345378D01*
X117649Y345394D01*
X117665D01*
X117760Y345410D01*
X117856Y345426D01*
X118016Y345394D01*
X118080Y345378D01*
X118127Y345362D01*
X118143Y345346D01*
X118159D01*
X118239Y345298D01*
X118287Y345218D01*
X118351Y345091D01*
X118367Y345011D01*
X118383Y344963D01*
Y340465D01*
X125768Y347611D01*
X126103Y347866D01*
X126422Y348090D01*
X126709Y348281D01*
X126980Y348425D01*
X127204Y348536D01*
X127379Y348600D01*
X127459Y348632D01*
X127507Y348648D01*
X127523Y348664D01*
X127538D01*
X127826Y348744D01*
X128097Y348807D01*
X128352Y348839D01*
X128591D01*
X128831D01*
X129054Y348807D01*
D02*
G37*
G36*
X130936Y331133D02*
X131000Y331118D01*
X131048Y331086D01*
X131064Y331070D01*
X131080D01*
X131159Y331022D01*
X131207Y330942D01*
X131271Y330815D01*
X131287Y330735D01*
X131303Y330687D01*
Y327050D01*
X131287Y326827D01*
X131271Y326603D01*
X131175Y326189D01*
X131032Y325790D01*
X130888Y325439D01*
X130808Y325295D01*
X130729Y325152D01*
X130649Y325040D01*
X130585Y324929D01*
X130537Y324849D01*
X130490Y324785D01*
X130474Y324753D01*
X130458Y324737D01*
X130298Y324530D01*
X130139Y324354D01*
X129788Y324035D01*
X129453Y323764D01*
X129134Y323557D01*
X128862Y323397D01*
X128735Y323333D01*
X128639Y323285D01*
X128544Y323254D01*
X128480Y323222D01*
X128448Y323206D01*
X128432D01*
X119818Y320287D01*
X119595Y320223D01*
X119388Y320175D01*
X119180Y320143D01*
X118989Y320127D01*
X118638Y320143D01*
X118351Y320207D01*
X118095Y320271D01*
X118000Y320319D01*
X117920Y320350D01*
X117856Y320382D01*
X117808Y320414D01*
X117792Y320430D01*
X117776D01*
X117633Y320542D01*
X117505Y320670D01*
X117394Y320797D01*
X117298Y320941D01*
X117154Y321228D01*
X117059Y321515D01*
X116995Y321770D01*
X116979Y321882D01*
X116963Y321978D01*
X116947Y322057D01*
Y325758D01*
X116963Y325886D01*
X116979Y326013D01*
X117011Y326109D01*
X117059Y326205D01*
X117106Y326284D01*
X117138Y326332D01*
X117154Y326364D01*
X117170Y326380D01*
X117346Y326540D01*
X117505Y326651D01*
X117569Y326683D01*
X117617Y326715D01*
X117649Y326731D01*
X117665D01*
X117760Y326747D01*
X117856Y326763D01*
X118016Y326731D01*
X118080Y326715D01*
X118127Y326699D01*
X118143Y326683D01*
X118159D01*
X118239Y326635D01*
X118287Y326555D01*
X118351Y326428D01*
X118367Y326348D01*
X118383Y326300D01*
Y322663D01*
X118399Y322472D01*
X118430Y322313D01*
X118446Y322233D01*
X118462Y322185D01*
X118478Y322153D01*
Y322137D01*
X118574Y321993D01*
X118686Y321882D01*
X118749Y321818D01*
X118781Y321786D01*
X118957Y321706D01*
X119132Y321659D01*
X119292Y321642D01*
X119467Y321659D01*
X119611Y321674D01*
X119722Y321690D01*
X119786Y321722D01*
X119818D01*
X128432Y324641D01*
X128639Y324737D01*
X128815Y324833D01*
X128878Y324881D01*
X128926Y324912D01*
X128958Y324944D01*
X128974D01*
X129166Y325104D01*
X129309Y325247D01*
X129373Y325311D01*
X129421Y325359D01*
X129437Y325391D01*
X129453Y325407D01*
X129596Y325614D01*
X129692Y325822D01*
X129772Y326029D01*
X129820Y326205D01*
X129852Y326348D01*
X129867Y326476D01*
Y330160D01*
X129883Y330288D01*
X129899Y330400D01*
X129931Y330511D01*
X129979Y330591D01*
X130027Y330671D01*
X130059Y330719D01*
X130075Y330751D01*
X130091Y330767D01*
X130186Y330862D01*
X130266Y330942D01*
X130426Y331038D01*
X130490Y331086D01*
X130537Y331102D01*
X130569Y331118D01*
X130585D01*
X130681Y331149D01*
X130777D01*
X130936Y331133D01*
D02*
G37*
G36*
X131032Y316889D02*
X131191Y316841D01*
X131303Y316761D01*
X131367Y316682D01*
X131415Y316586D01*
X131431Y316522D01*
X131447Y316458D01*
Y316442D01*
X131415Y316267D01*
X131351Y316108D01*
X131255Y315964D01*
X131144Y315820D01*
X131016Y315709D01*
X130920Y315629D01*
X130856Y315565D01*
X130824Y315549D01*
X117888Y306840D01*
X117633Y306696D01*
X117521Y306680D01*
X117425Y306664D01*
X117266Y306696D01*
X117218Y306728D01*
X117170Y306744D01*
X117154Y306776D01*
X117138D01*
X117074Y306840D01*
X117027Y306904D01*
X116979Y307047D01*
X116963Y307111D01*
X116947Y307159D01*
Y307207D01*
X116979Y307382D01*
X117011Y307526D01*
X117043Y307605D01*
X117059Y307637D01*
X117186Y307797D01*
X117298Y307924D01*
X117409Y308004D01*
X117425Y308036D01*
X117441D01*
X120552Y310126D01*
Y315326D01*
X117441Y315310D01*
X117330Y315326D01*
X117234Y315358D01*
X117154Y315374D01*
X117091Y315406D01*
X117059Y315438D01*
X117027Y315469D01*
X117011Y315485D01*
X116979Y315597D01*
X116963Y315693D01*
X116947Y315756D01*
Y315788D01*
X116963Y315900D01*
X116979Y315996D01*
X117043Y316187D01*
X117074Y316251D01*
X117106Y316315D01*
X117138Y316347D01*
Y316363D01*
X117218Y316474D01*
X117314Y316554D01*
X117394Y316634D01*
X117473Y316682D01*
X117537Y316714D01*
X117585Y316745D01*
X117617Y316761D01*
X117633D01*
X117888Y316809D01*
X130824Y316905D01*
X131032Y316889D01*
D02*
G37*
G36*
X528905Y368492D02*
X528966Y368477D01*
X529012Y368447D01*
X529027Y368431D01*
X529042D01*
X529103Y368355D01*
X529149Y368279D01*
X529210Y368141D01*
Y368080D01*
X529226Y368034D01*
Y367989D01*
X529210Y367851D01*
X529164Y367714D01*
X529103Y367622D01*
X529088Y367592D01*
Y367576D01*
X528981Y367424D01*
X528874Y367302D01*
X528783Y367225D01*
X528768Y367210D01*
X528752Y367195D01*
X518463Y360234D01*
X528752Y360249D01*
X528859Y360234D01*
X528951Y360219D01*
X529027Y360203D01*
X529073Y360173D01*
X529149Y360127D01*
X529164Y360112D01*
X529226Y359959D01*
Y359776D01*
X529210Y359669D01*
X529195Y359562D01*
X529119Y359379D01*
X529073Y359318D01*
X529027Y359257D01*
X529012Y359226D01*
X528997Y359211D01*
X528920Y359119D01*
X528844Y359043D01*
X528768Y358982D01*
X528691Y358936D01*
X528645Y358906D01*
X528600Y358875D01*
X528569Y358860D01*
X528554D01*
X528310Y358814D01*
X516082Y358768D01*
X515883Y358799D01*
X515731Y358845D01*
X515639Y358921D01*
X515563Y358997D01*
X515517Y359074D01*
X515502Y359150D01*
X515487Y359196D01*
Y359211D01*
X515548Y359409D01*
X515593Y359562D01*
X515624Y359638D01*
X515639Y359669D01*
X515792Y359822D01*
X515929Y359959D01*
X515990Y360005D01*
X516036Y360035D01*
X516067Y360066D01*
X516082D01*
X528310Y368340D01*
X528554Y368462D01*
X528661Y368492D01*
X528752Y368508D01*
X528905Y368492D01*
D02*
G37*
G36*
X527073Y355166D02*
X527256Y355135D01*
X527439Y355089D01*
X527607Y355043D01*
X527745Y354998D01*
X527867Y354937D01*
X527974Y354891D01*
X528050Y354845D01*
X528111Y354814D01*
X528142Y354799D01*
X528157Y354784D01*
X528340Y354631D01*
X528508Y354463D01*
X528645Y354296D01*
X528783Y354097D01*
X528874Y353899D01*
X528966Y353700D01*
X529042Y353517D01*
X529088Y353318D01*
X529134Y353135D01*
X529164Y352967D01*
X529195Y352815D01*
X529210Y352677D01*
X529226Y352570D01*
Y352418D01*
X529210Y352128D01*
X529180Y351990D01*
X529164Y351868D01*
X529134Y351762D01*
X529103Y351670D01*
X529088Y351609D01*
Y351594D01*
X528981Y351258D01*
X528920Y351105D01*
X528874Y350968D01*
X528813Y350845D01*
X528783Y350754D01*
X528752Y350693D01*
X528737Y350678D01*
X528554Y350326D01*
X528355Y350006D01*
X528142Y349731D01*
X527958Y349472D01*
X527790Y349273D01*
X527653Y349120D01*
X527607Y349075D01*
X527562Y349029D01*
X527546Y349014D01*
X527531Y348998D01*
X527439Y348922D01*
X527363Y348861D01*
X527241Y348785D01*
X527165Y348754D01*
X527134Y348739D01*
X527043Y348708D01*
X526951D01*
X526798Y348739D01*
X526737Y348754D01*
X526691Y348785D01*
X526676Y348800D01*
X526661D01*
X526600Y348861D01*
X526554Y348937D01*
X526508Y349075D01*
X526493Y349136D01*
X526478Y349182D01*
Y349227D01*
X526539Y349548D01*
X526630Y349701D01*
X526707Y349808D01*
X526768Y349884D01*
X526783Y349899D01*
X526951Y350082D01*
X527119Y350265D01*
X527256Y350433D01*
X527363Y350601D01*
X527455Y350739D01*
X527516Y350861D01*
X527562Y350922D01*
X527577Y350952D01*
X527668Y351166D01*
X527729Y351365D01*
X527790Y351563D01*
X527821Y351716D01*
X527836Y351853D01*
X527852Y351960D01*
Y352235D01*
X527821Y352387D01*
X527790Y352540D01*
X527760Y352662D01*
X527729Y352769D01*
X527699Y352845D01*
X527684Y352891D01*
X527668Y352906D01*
X527592Y353044D01*
X527516Y353166D01*
X527439Y353257D01*
X527363Y353349D01*
X527287Y353410D01*
X527226Y353456D01*
X527195Y353486D01*
X527180Y353502D01*
X527058Y353578D01*
X526936Y353639D01*
X526676Y353731D01*
X526417Y353761D01*
X526172D01*
X525974Y353746D01*
X525806Y353715D01*
X525745Y353700D01*
X525699Y353685D01*
X525669Y353670D01*
X525653D01*
X525470Y353593D01*
X525287Y353502D01*
X525119Y353410D01*
X524966Y353303D01*
X524829Y353212D01*
X524722Y353135D01*
X524661Y353074D01*
X524631Y353059D01*
X516540Y345258D01*
X516433Y345167D01*
X516342Y345090D01*
X516174Y344999D01*
X516113Y344968D01*
X516082Y344938D01*
X516051Y344923D01*
X516036D01*
X515945Y344892D01*
X515853D01*
X515777Y344907D01*
X515716Y344938D01*
X515624Y345014D01*
X515563Y345136D01*
X515517Y345243D01*
X515502Y345365D01*
X515487Y345442D01*
Y350968D01*
X515502Y351090D01*
X515517Y351212D01*
X515548Y351303D01*
X515593Y351395D01*
X515639Y351471D01*
X515670Y351517D01*
X515685Y351548D01*
X515700Y351563D01*
X515868Y351716D01*
X516021Y351823D01*
X516082Y351853D01*
X516128Y351884D01*
X516158Y351899D01*
X516174D01*
X516265Y351914D01*
X516357Y351929D01*
X516509Y351899D01*
X516571Y351884D01*
X516616Y351868D01*
X516632Y351853D01*
X516647D01*
X516723Y351807D01*
X516769Y351731D01*
X516830Y351609D01*
X516845Y351533D01*
X516861Y351487D01*
Y347182D01*
X523928Y354021D01*
X524249Y354265D01*
X524554Y354479D01*
X524829Y354662D01*
X525089Y354799D01*
X525302Y354906D01*
X525470Y354967D01*
X525546Y354998D01*
X525592Y355013D01*
X525608Y355028D01*
X525623D01*
X525898Y355105D01*
X526157Y355166D01*
X526401Y355196D01*
X526630D01*
X526859D01*
X527073Y355166D01*
D02*
G37*
G36*
X512388Y355822D02*
X512449Y355807D01*
X512495Y355776D01*
X512510Y355761D01*
X512525D01*
X512602Y355715D01*
X512647Y355639D01*
X512708Y355517D01*
X512724Y355440D01*
X512739Y355395D01*
Y348479D01*
X512724Y348357D01*
X512708Y348250D01*
X512663Y348144D01*
X512632Y348052D01*
X512586Y347991D01*
X512540Y347930D01*
X512525Y347899D01*
X512510Y347884D01*
X512418Y347808D01*
X512342Y347731D01*
X512189Y347640D01*
X512144Y347594D01*
X512098Y347579D01*
X512067Y347564D01*
X512052D01*
X511945Y347533D01*
X511853D01*
X511701D01*
X511640Y347548D01*
X511594Y347564D01*
X511563Y347579D01*
X511548D01*
X511487Y347640D01*
X511441Y347701D01*
X511395Y347854D01*
X511380Y347915D01*
X511365Y347976D01*
Y350769D01*
X499687Y346800D01*
X499565Y346770D01*
X499458Y346754D01*
X499366D01*
X499290Y346770D01*
X499244Y346785D01*
X499198Y346815D01*
X499183Y346831D01*
X499168D01*
X499107Y346892D01*
X499076Y346968D01*
X499015Y347105D01*
Y347167D01*
X499000Y347212D01*
Y347258D01*
X499030Y347472D01*
X499076Y347640D01*
X499107Y347701D01*
X499122Y347747D01*
X499153Y347777D01*
Y347792D01*
X499229Y347884D01*
X499321Y347976D01*
X499488Y348083D01*
X499565Y348128D01*
X499626Y348159D01*
X499672Y348174D01*
X499687D01*
X511365Y352143D01*
Y354891D01*
X511380Y355013D01*
X511395Y355120D01*
X511426Y355227D01*
X511472Y355303D01*
X511518Y355379D01*
X511548Y355425D01*
X511563Y355456D01*
X511579Y355471D01*
X511670Y355563D01*
X511747Y355639D01*
X511899Y355731D01*
X511960Y355776D01*
X512006Y355792D01*
X512037Y355807D01*
X512052D01*
X512144Y355837D01*
X512235D01*
X512388Y355822D01*
D02*
G37*
G36*
X529058Y346525D02*
X529088Y346510D01*
X529103D01*
X529180Y346449D01*
X529226Y346403D01*
X529286Y346296D01*
X529317Y346220D01*
Y346190D01*
X529302Y346052D01*
X529271Y345945D01*
X529241Y345854D01*
X529226Y345839D01*
Y345823D01*
X529164Y345701D01*
X529088Y345579D01*
X529042Y345503D01*
X529012Y345487D01*
Y345472D01*
X526264Y341793D01*
X526172Y341702D01*
X526081Y341610D01*
X526004Y341549D01*
X525943Y341503D01*
X525882Y341473D01*
X525837Y341442D01*
X525806Y341427D01*
X525791D01*
X525684Y341396D01*
X525592D01*
X525440Y341412D01*
X525379Y341442D01*
X525348Y341457D01*
X525317Y341473D01*
X525302D01*
X525226Y341534D01*
X525180Y341610D01*
X525119Y341747D01*
X525104Y341793D01*
X525089Y341839D01*
Y341885D01*
X525104Y341992D01*
X525119Y342083D01*
X525195Y342266D01*
X525241Y342327D01*
X525272Y342388D01*
X525287Y342419D01*
X525302Y342434D01*
X526875Y344541D01*
X516158Y340908D01*
X516036Y340877D01*
X515945Y340862D01*
X515853D01*
X515777Y340877D01*
X515731Y340892D01*
X515685Y340923D01*
X515670Y340938D01*
X515654D01*
X515593Y340999D01*
X515563Y341076D01*
X515502Y341213D01*
Y341274D01*
X515487Y341320D01*
Y341366D01*
X515517Y341579D01*
X515563Y341747D01*
X515593Y341808D01*
X515609Y341854D01*
X515639Y341885D01*
Y341900D01*
X515716Y341992D01*
X515807Y342083D01*
X515975Y342190D01*
X516051Y342236D01*
X516113Y342266D01*
X516143Y342282D01*
X516158D01*
X528523Y346480D01*
X528661Y346510D01*
X528768Y346541D01*
X528874D01*
X528951D01*
X529012D01*
X529058Y346525D01*
D02*
G37*
G36*
X512434Y344846D02*
X512479Y344831D01*
X512525Y344800D01*
X512556Y344785D01*
X512617Y344724D01*
X512663Y344648D01*
X512724Y344510D01*
Y344449D01*
X512739Y344403D01*
Y344251D01*
X512708Y344159D01*
X512647Y343991D01*
X512617Y343915D01*
X512586Y343869D01*
X512571Y343839D01*
X512556Y343823D01*
X512464Y343732D01*
X512388Y343640D01*
X512296Y343579D01*
X512220Y343518D01*
X512159Y343488D01*
X512098Y343457D01*
X512067Y343442D01*
X512052D01*
X501748Y339946D01*
X501534Y339854D01*
X501336Y339732D01*
X501168Y339610D01*
X501030Y339488D01*
X500908Y339381D01*
X500832Y339290D01*
X500771Y339229D01*
X500756Y339198D01*
X500633Y339000D01*
X500542Y338801D01*
X500466Y338618D01*
X500420Y338450D01*
X500389Y338313D01*
X500374Y338190D01*
Y335351D01*
X500389Y335168D01*
X500420Y335015D01*
X500435Y334939D01*
X500450Y334893D01*
X500466Y334863D01*
Y334847D01*
X500557Y334710D01*
X500664Y334603D01*
X500725Y334542D01*
X500756Y334511D01*
X500923Y334435D01*
X501091Y334389D01*
X501244Y334374D01*
X501412Y334389D01*
X501549Y334405D01*
X501656Y334420D01*
X501717Y334450D01*
X501748D01*
X512052Y337946D01*
X512174Y337977D01*
X512266Y337992D01*
X512357D01*
X512434Y337977D01*
X512479Y337962D01*
X512525Y337931D01*
X512556Y337916D01*
X512617Y337855D01*
X512663Y337778D01*
X512724Y337641D01*
Y337580D01*
X512739Y337534D01*
Y337381D01*
X512708Y337290D01*
X512647Y337122D01*
X512617Y337046D01*
X512586Y337000D01*
X512571Y336969D01*
X512556Y336954D01*
X512464Y336862D01*
X512388Y336771D01*
X512296Y336710D01*
X512220Y336649D01*
X512159Y336618D01*
X512098Y336588D01*
X512067Y336572D01*
X512052D01*
X501748Y333077D01*
X501534Y333016D01*
X501336Y332970D01*
X501137Y332939D01*
X500954Y332924D01*
X500618Y332939D01*
X500343Y333000D01*
X500099Y333061D01*
X500008Y333107D01*
X499931Y333138D01*
X499870Y333168D01*
X499824Y333199D01*
X499809Y333214D01*
X499794D01*
X499656Y333321D01*
X499534Y333443D01*
X499427Y333580D01*
X499336Y333703D01*
X499198Y333993D01*
X499107Y334267D01*
X499046Y334511D01*
X499030Y334618D01*
X499015Y334710D01*
X499000Y334786D01*
Y337641D01*
X499015Y337855D01*
X499030Y338068D01*
X499122Y338465D01*
X499259Y338832D01*
X499412Y339168D01*
X499473Y339320D01*
X499549Y339458D01*
X499626Y339564D01*
X499687Y339671D01*
X499733Y339748D01*
X499779Y339809D01*
X499794Y339839D01*
X499809Y339854D01*
X499962Y340053D01*
X500130Y340236D01*
X500282Y340389D01*
X500450Y340541D01*
X500786Y340801D01*
X501076Y340999D01*
X501351Y341137D01*
X501458Y341198D01*
X501565Y341244D01*
X501641Y341274D01*
X501702Y341305D01*
X501732Y341320D01*
X501748D01*
X512052Y344816D01*
X512174Y344846D01*
X512266Y344861D01*
X512357D01*
X512434Y344846D01*
D02*
G37*
G36*
X528874Y331382D02*
X528935Y331367D01*
X528981Y331336D01*
X528997Y331321D01*
X529012D01*
X529088Y331275D01*
X529134Y331199D01*
X529195Y331077D01*
X529210Y331001D01*
X529226Y330955D01*
Y327474D01*
X529210Y327261D01*
X529195Y327047D01*
X529103Y326650D01*
X528966Y326268D01*
X528829Y325932D01*
X528752Y325795D01*
X528676Y325658D01*
X528600Y325551D01*
X528539Y325444D01*
X528493Y325368D01*
X528447Y325307D01*
X528432Y325276D01*
X528416Y325261D01*
X528264Y325062D01*
X528111Y324894D01*
X527775Y324589D01*
X527455Y324329D01*
X527149Y324131D01*
X526890Y323978D01*
X526768Y323917D01*
X526676Y323872D01*
X526585Y323841D01*
X526524Y323811D01*
X526493Y323795D01*
X526478D01*
X518234Y321002D01*
X518021Y320941D01*
X517822Y320895D01*
X517624Y320864D01*
X517441Y320849D01*
X517105Y320864D01*
X516830Y320925D01*
X516586Y320986D01*
X516494Y321032D01*
X516418Y321063D01*
X516357Y321093D01*
X516311Y321124D01*
X516296Y321139D01*
X516280D01*
X516143Y321246D01*
X516021Y321368D01*
X515914Y321490D01*
X515822Y321628D01*
X515685Y321902D01*
X515593Y322177D01*
X515532Y322421D01*
X515517Y322528D01*
X515502Y322620D01*
X515487Y322696D01*
Y326238D01*
X515502Y326360D01*
X515517Y326482D01*
X515548Y326573D01*
X515593Y326665D01*
X515639Y326741D01*
X515670Y326787D01*
X515685Y326818D01*
X515700Y326833D01*
X515868Y326986D01*
X516021Y327093D01*
X516082Y327123D01*
X516128Y327154D01*
X516158Y327169D01*
X516174D01*
X516265Y327184D01*
X516357Y327199D01*
X516509Y327169D01*
X516571Y327154D01*
X516616Y327138D01*
X516632Y327123D01*
X516647D01*
X516723Y327077D01*
X516769Y327001D01*
X516830Y326879D01*
X516845Y326802D01*
X516861Y326757D01*
Y323276D01*
X516876Y323093D01*
X516906Y322940D01*
X516922Y322864D01*
X516937Y322818D01*
X516952Y322788D01*
Y322772D01*
X517044Y322635D01*
X517151Y322528D01*
X517212Y322467D01*
X517242Y322437D01*
X517410Y322360D01*
X517578Y322314D01*
X517731Y322299D01*
X517899Y322314D01*
X518036Y322330D01*
X518143Y322345D01*
X518204Y322376D01*
X518234D01*
X526478Y325169D01*
X526676Y325261D01*
X526844Y325352D01*
X526905Y325398D01*
X526951Y325429D01*
X526982Y325459D01*
X526997D01*
X527180Y325612D01*
X527317Y325749D01*
X527378Y325810D01*
X527424Y325856D01*
X527439Y325887D01*
X527455Y325902D01*
X527592Y326100D01*
X527684Y326299D01*
X527760Y326497D01*
X527806Y326665D01*
X527836Y326802D01*
X527852Y326925D01*
Y330451D01*
X527867Y330573D01*
X527882Y330680D01*
X527913Y330787D01*
X527958Y330863D01*
X528004Y330939D01*
X528035Y330985D01*
X528050Y331016D01*
X528065Y331031D01*
X528157Y331123D01*
X528233Y331199D01*
X528386Y331291D01*
X528447Y331336D01*
X528493Y331352D01*
X528523Y331367D01*
X528539D01*
X528630Y331397D01*
X528722D01*
X528874Y331382D01*
D02*
G37*
G36*
X511105Y333260D02*
X511380Y333199D01*
X511609Y333138D01*
X511701Y333092D01*
X511792Y333061D01*
X511853Y333031D01*
X511899Y333000D01*
X511914Y332985D01*
X511930D01*
X512067Y332878D01*
X512205Y332771D01*
X512311Y332634D01*
X512403Y332512D01*
X512540Y332222D01*
X512632Y331947D01*
X512693Y331703D01*
X512708Y331596D01*
X512724Y331489D01*
X512739Y331413D01*
Y328558D01*
X512724Y328344D01*
X512708Y328131D01*
X512617Y327734D01*
X512479Y327352D01*
X512342Y327016D01*
X512266Y326879D01*
X512189Y326741D01*
X512113Y326635D01*
X512052Y326528D01*
X512006Y326451D01*
X511960Y326390D01*
X511945Y326360D01*
X511930Y326345D01*
X511777Y326146D01*
X511624Y325978D01*
X511289Y325673D01*
X510968Y325413D01*
X510663Y325215D01*
X510403Y325062D01*
X510281Y325001D01*
X510190Y324955D01*
X510098Y324925D01*
X510037Y324894D01*
X510006Y324879D01*
X509991D01*
X501748Y322085D01*
X501534Y322024D01*
X501336Y321979D01*
X501137Y321948D01*
X500954Y321933D01*
X500618Y321948D01*
X500343Y322009D01*
X500099Y322070D01*
X500008Y322116D01*
X499931Y322147D01*
X499870Y322177D01*
X499824Y322208D01*
X499809Y322223D01*
X499794D01*
X499656Y322330D01*
X499534Y322452D01*
X499427Y322589D01*
X499336Y322711D01*
X499198Y323001D01*
X499107Y323276D01*
X499046Y323521D01*
X499030Y323627D01*
X499015Y323719D01*
X499000Y323795D01*
Y326650D01*
X499015Y326864D01*
X499030Y327077D01*
X499122Y327474D01*
X499259Y327841D01*
X499412Y328176D01*
X499473Y328329D01*
X499549Y328466D01*
X499626Y328573D01*
X499687Y328680D01*
X499733Y328756D01*
X499779Y328818D01*
X499794Y328848D01*
X499809Y328863D01*
X499962Y329062D01*
X500130Y329245D01*
X500282Y329398D01*
X500450Y329550D01*
X500786Y329810D01*
X501076Y330008D01*
X501351Y330146D01*
X501458Y330207D01*
X501565Y330252D01*
X501641Y330283D01*
X501702Y330314D01*
X501732Y330329D01*
X501748D01*
X509991Y333122D01*
X510205Y333184D01*
X510403Y333229D01*
X510586Y333260D01*
X510770Y333275D01*
X511105Y333260D01*
D02*
G37*
G36*
X527592Y321185D02*
X527867Y321124D01*
X528096Y321063D01*
X528187Y321017D01*
X528279Y320986D01*
X528340Y320956D01*
X528386Y320925D01*
X528401Y320910D01*
X528416D01*
X528554Y320803D01*
X528691Y320696D01*
X528798Y320559D01*
X528890Y320437D01*
X529027Y320147D01*
X529119Y319872D01*
X529180Y319628D01*
X529195Y319521D01*
X529210Y319414D01*
X529226Y319338D01*
Y314300D01*
X529195Y314193D01*
X529119Y313995D01*
X529012Y313827D01*
X528890Y313705D01*
X528752Y313613D01*
X528645Y313552D01*
X528569Y313522D01*
X528554Y313506D01*
X528539D01*
X516174Y309308D01*
X516051Y309278D01*
X515945Y309263D01*
X515853D01*
X515777Y309278D01*
X515654Y309354D01*
X515578Y309446D01*
X515517Y309568D01*
X515502Y309660D01*
X515487Y309736D01*
Y314575D01*
X515502Y314789D01*
X515517Y315002D01*
X515609Y315399D01*
X515746Y315766D01*
X515899Y316101D01*
X515960Y316254D01*
X516036Y316392D01*
X516113Y316498D01*
X516174Y316605D01*
X516219Y316682D01*
X516265Y316743D01*
X516280Y316773D01*
X516296Y316788D01*
X516448Y316987D01*
X516616Y317170D01*
X516769Y317323D01*
X516937Y317475D01*
X517273Y317735D01*
X517563Y317933D01*
X517837Y318071D01*
X517944Y318132D01*
X518051Y318178D01*
X518128Y318208D01*
X518189Y318239D01*
X518219Y318254D01*
X518234D01*
X526478Y321048D01*
X526691Y321109D01*
X526890Y321154D01*
X527073Y321185D01*
X527256Y321200D01*
X527592Y321185D01*
D02*
G37*
%LPC*%
G36*
X128751Y367694D02*
X128559D01*
X128400Y367678D01*
X128256Y367646D01*
X128177Y367630D01*
X128161Y367614D01*
X128145D01*
X120105Y364886D01*
X119834Y364775D01*
X119595Y364631D01*
X119388Y364472D01*
X119196Y364328D01*
X119052Y364168D01*
X118957Y364057D01*
X118877Y363977D01*
X118861Y363961D01*
Y363945D01*
X118702Y363690D01*
X118590Y363451D01*
X118494Y363211D01*
X118446Y363004D01*
X118414Y362828D01*
X118399Y362701D01*
X118383Y362605D01*
Y361712D01*
X118399Y361457D01*
X118462Y361249D01*
X118542Y361058D01*
X118638Y360914D01*
X118717Y360803D01*
X118797Y360723D01*
X118861Y360675D01*
X118877Y360659D01*
X119084Y360564D01*
X119292Y360516D01*
X119483Y360500D01*
X119691D01*
X119850Y360516D01*
X119994Y360547D01*
X120073Y360564D01*
X120105Y360579D01*
X128145Y363307D01*
X128400Y363419D01*
X128639Y363546D01*
X128847Y363706D01*
X129022Y363849D01*
X129166Y363993D01*
X129261Y364105D01*
X129341Y364184D01*
X129357Y364216D01*
X129532Y364472D01*
X129660Y364727D01*
X129740Y364966D01*
X129804Y365173D01*
X129836Y365365D01*
X129867Y365492D01*
Y366481D01*
X129852Y366737D01*
X129788Y366944D01*
X129708Y367119D01*
X129612Y367263D01*
X129516Y367375D01*
X129437Y367454D01*
X129373Y367502D01*
X129357Y367518D01*
X129166Y367614D01*
X128958Y367678D01*
X128751Y367694D01*
D02*
G37*
G36*
X128336Y315374D02*
X122019Y315342D01*
Y311115D01*
X128336Y315374D01*
D02*
G37*
G36*
X510480Y331825D02*
X510327Y331810D01*
X510190Y331794D01*
X510083Y331779D01*
X510022Y331764D01*
X509991Y331749D01*
X501748Y328955D01*
X501534Y328863D01*
X501336Y328741D01*
X501168Y328619D01*
X501030Y328497D01*
X500908Y328390D01*
X500832Y328298D01*
X500771Y328237D01*
X500756Y328207D01*
X500633Y328008D01*
X500542Y327810D01*
X500466Y327627D01*
X500420Y327459D01*
X500389Y327322D01*
X500374Y327199D01*
Y324360D01*
X500389Y324177D01*
X500420Y324024D01*
X500435Y323948D01*
X500450Y323902D01*
X500466Y323872D01*
Y323856D01*
X500557Y323719D01*
X500664Y323612D01*
X500725Y323551D01*
X500756Y323521D01*
X500923Y323444D01*
X501091Y323398D01*
X501244Y323383D01*
X501412Y323398D01*
X501549Y323414D01*
X501656Y323429D01*
X501717Y323459D01*
X501748D01*
X509991Y326253D01*
X510190Y326345D01*
X510358Y326436D01*
X510419Y326482D01*
X510464Y326512D01*
X510495Y326543D01*
X510510D01*
X510693Y326696D01*
X510831Y326833D01*
X510892Y326894D01*
X510938Y326940D01*
X510953Y326970D01*
X510968Y326986D01*
X511105Y327184D01*
X511197Y327383D01*
X511273Y327581D01*
X511319Y327749D01*
X511350Y327886D01*
X511365Y328008D01*
Y330848D01*
X511350Y331062D01*
X511304Y331230D01*
X511228Y331382D01*
X511166Y331489D01*
X511090Y331581D01*
X511014Y331642D01*
X510968Y331672D01*
X510953Y331687D01*
X510800Y331764D01*
X510632Y331810D01*
X510480Y331825D01*
D02*
G37*
G36*
X526966Y319750D02*
X526814Y319735D01*
X526676Y319719D01*
X526569Y319704D01*
X526508Y319689D01*
X526478Y319674D01*
X518234Y316880D01*
X518021Y316788D01*
X517822Y316666D01*
X517654Y316544D01*
X517517Y316422D01*
X517395Y316315D01*
X517318Y316224D01*
X517257Y316162D01*
X517242Y316132D01*
X517120Y315934D01*
X517028Y315735D01*
X516952Y315552D01*
X516906Y315384D01*
X516876Y315247D01*
X516861Y315124D01*
Y310911D01*
X527852Y314651D01*
Y318773D01*
X527836Y318987D01*
X527790Y319155D01*
X527714Y319307D01*
X527653Y319414D01*
X527577Y319506D01*
X527500Y319567D01*
X527455Y319597D01*
X527439Y319613D01*
X527287Y319689D01*
X527119Y319735D01*
X526966Y319750D01*
D02*
G37*
%LPD*%
M02*
