G04*
G04 #@! TF.GenerationSoftware,Altium Limited,Altium Designer,19.1.7 (138)*
G04*
G04 Layer_Color=16711935*
%FSLAX44Y44*%
%MOMM*%
G71*
G01*
G75*
%ADD44R,1.4032X1.4032*%
%ADD45C,1.4032*%
%ADD46C,3.2032*%
%ADD47C,2.2032*%
%ADD48C,2.0032*%
%ADD49R,2.0032X2.0032*%
%ADD50C,1.9562*%
%ADD51C,2.5032*%
%ADD52C,2.1032*%
G54D44*
X290000Y51000D02*
D03*
X700000Y613000D02*
D03*
G54D45*
X270000Y51000D02*
D03*
X250000D02*
D03*
X740000Y613000D02*
D03*
X720000D02*
D03*
X760000D02*
D03*
G54D46*
X300000Y570000D02*
D03*
X150000D02*
D03*
X40000Y300000D02*
D03*
Y400000D02*
D03*
X877500Y615000D02*
D03*
Y35000D02*
D03*
X62500D02*
D03*
Y615000D02*
D03*
G54D47*
X304000Y100500D02*
D03*
Y225500D02*
D03*
X254000Y100500D02*
D03*
Y225500D02*
D03*
G54D48*
X592000Y314000D02*
D03*
X617400D02*
D03*
X680000Y31000D02*
D03*
X654600D02*
D03*
G54D49*
X566600Y314000D02*
D03*
X705400Y31000D02*
D03*
G54D50*
X894300Y325000D02*
D03*
Y350400D02*
D03*
Y375800D02*
D03*
Y401200D02*
D03*
Y426600D02*
D03*
Y452000D02*
D03*
Y477400D02*
D03*
Y502800D02*
D03*
Y299600D02*
D03*
Y274200D02*
D03*
Y248800D02*
D03*
Y223400D02*
D03*
Y198000D02*
D03*
Y172600D02*
D03*
Y147200D02*
D03*
X665700D02*
D03*
Y172600D02*
D03*
Y198000D02*
D03*
Y223400D02*
D03*
Y248800D02*
D03*
Y274200D02*
D03*
Y299600D02*
D03*
Y502800D02*
D03*
Y477400D02*
D03*
Y452000D02*
D03*
Y426600D02*
D03*
Y401200D02*
D03*
Y375800D02*
D03*
Y350400D02*
D03*
Y325000D02*
D03*
G54D51*
X356600Y617600D02*
D03*
X533000Y542000D02*
D03*
Y617600D02*
D03*
X432200D02*
D03*
G54D52*
X124000Y402500D02*
D03*
Y295000D02*
D03*
X509000D02*
D03*
Y375000D02*
D03*
M02*
