M48
;Layer_Color=9474304
;FILE_FORMAT=4:4
METRIC,LZ
;TYPE=PLATED
T1F00S00C0.2000
T2F00S00C0.3000
T3F00S00C0.7500
T4F00S00C0.8890
T5F00S00C1.0000
T6F00S00C1.1000
T7F00S00C1.3000
T8F00S00C1.3500
T9F00S00C3.5000
%
T01
X00371Y00226
X006055Y00218
X00586Y00266
X006155Y0034
X00917Y00436
Y00471
T02
X00595Y00596
X00643Y00574
T03
X0025Y00051
X0027
X0029
X007Y00613
X0072
X0074
X0076
T04
X006657Y001472
Y001726
Y00198
Y002234
Y002488
Y002742
Y002996
Y00325
Y003504
Y003758
Y004012
Y004266
Y00452
X008943
Y004266
Y004012
Y003758
Y003504
Y00325
Y002996
Y002742
Y002488
Y002234
Y00198
Y001726
Y001472
Y004774
Y005028
X006657
Y004774
T05
X006546Y00031
X0068
X007054
X005666Y00314
X00592
X006174
T06
X00124Y00295
Y004025
X00509Y00375
Y00295
T07
X00254Y001005
X00304
Y002255
X00254
X003566Y006176
X004322
X00533
Y00542
T08
X0004Y003
Y004
X003Y0057
X0015
T09
X008775Y00035
X000625
X008775Y00615
X000625
M30
