G04*
G04 #@! TF.GenerationSoftware,Altium Limited,Altium Designer,19.1.7 (138)*
G04*
G04 Layer_Color=8421504*
%FSLAX44Y44*%
%MOMM*%
G71*
G01*
G75*
%ADD18R,1.0000X2.1500*%
%ADD19R,3.2500X2.1500*%
%ADD20R,1.1500X1.4500*%
%ADD21R,0.9500X1.4000*%
%ADD22R,1.0000X1.0000*%
%ADD23R,1.4000X0.9500*%
%ADD24R,1.0000X0.9000*%
%ADD25R,1.0000X1.0000*%
%ADD26R,2.1500X3.2500*%
%ADD27R,2.1500X1.0000*%
%ADD28R,1.7000X0.9000*%
%ADD29R,1.0000X0.6000*%
%ADD30R,1.3000X1.1000*%
G54D18*
X615000Y421250D02*
D03*
X592000Y421250D02*
D03*
X569000Y421250D02*
D03*
G54D19*
X592000Y362750D02*
D03*
G54D20*
X271000Y243000D02*
D03*
X289000D02*
D03*
G54D21*
X371000Y226000D02*
D03*
X351000D02*
D03*
X590000Y235000D02*
D03*
X610000D02*
D03*
G54D22*
X615500Y340000D02*
D03*
X600500D02*
D03*
X600500Y445000D02*
D03*
X585500D02*
D03*
X605500Y218000D02*
D03*
X590500D02*
D03*
G54D23*
X680000Y73000D02*
D03*
Y53000D02*
D03*
X705000Y73000D02*
D03*
Y53000D02*
D03*
X643000Y554000D02*
D03*
Y574000D02*
D03*
G54D24*
X917000Y471000D02*
D03*
Y487000D02*
D03*
Y436000D02*
D03*
Y452000D02*
D03*
G54D25*
X630000Y167500D02*
D03*
Y152500D02*
D03*
X489000Y225500D02*
D03*
Y210500D02*
D03*
G54D26*
X567250Y218000D02*
D03*
G54D27*
X508750Y195000D02*
D03*
X508750Y218000D02*
D03*
X508750Y241000D02*
D03*
G54D28*
X570000Y596000D02*
D03*
Y564000D02*
D03*
G54D29*
X619500Y554500D02*
D03*
Y573500D02*
D03*
X596570Y564000D02*
D03*
G54D30*
X610000Y266000D02*
D03*
X586000D02*
D03*
M02*
